<mxfile host="app.diagrams.net" modified="2024-01-30T17:30:29.237Z" agent="Mozilla/5.0 (Windows NT 10.0; Win64; x64) AppleWebKit/537.36 (KHTML, like Gecko) Chrome/120.0.0.0 Safari/537.36 OPR/106.0.0.0" etag="H_j78Gr9Fh5yDXFcSwff" version="23.0.2" type="device">
  <diagram name="PÃ¡gina-1" id="CzWDQ7AmnlidxwgSO9pz">
    <mxGraphModel dx="2466" dy="901" grid="1" gridSize="10" guides="1" tooltips="1" connect="1" arrows="1" fold="1" page="1" pageScale="1" pageWidth="827" pageHeight="1169" math="0" shadow="0">
      <root>
        <mxCell id="0" />
        <mxCell id="1" parent="0" />
        <mxCell id="hkQat9WKistaWR4Mlhn9-91" style="edgeStyle=orthogonalEdgeStyle;rounded=0;orthogonalLoop=1;jettySize=auto;html=1;entryX=0.05;entryY=0.017;entryDx=0;entryDy=0;entryPerimeter=0;fillColor=#6a00ff;strokeColor=#3700CC;" edge="1" parent="1" source="hkQat9WKistaWR4Mlhn9-89" target="hkQat9WKistaWR4Mlhn9-29">
          <mxGeometry relative="1" as="geometry" />
        </mxCell>
        <mxCell id="hkQat9WKistaWR4Mlhn9-85" style="edgeStyle=orthogonalEdgeStyle;rounded=0;orthogonalLoop=1;jettySize=auto;html=1;" edge="1" parent="1" source="hkQat9WKistaWR4Mlhn9-23">
          <mxGeometry relative="1" as="geometry">
            <mxPoint x="430" y="916" as="targetPoint" />
          </mxGeometry>
        </mxCell>
        <mxCell id="hkQat9WKistaWR4Mlhn9-77" style="edgeStyle=orthogonalEdgeStyle;rounded=0;orthogonalLoop=1;jettySize=auto;html=1;entryX=0.583;entryY=0;entryDx=0;entryDy=0;entryPerimeter=0;" edge="1" parent="1" source="hkQat9WKistaWR4Mlhn9-23" target="hkQat9WKistaWR4Mlhn9-70">
          <mxGeometry relative="1" as="geometry">
            <mxPoint x="-30" y="360" as="targetPoint" />
          </mxGeometry>
        </mxCell>
        <mxCell id="hkQat9WKistaWR4Mlhn9-68" value="LOCAL INSTANCE" style="swimlane;whiteSpace=wrap;html=1;" vertex="1" parent="1">
          <mxGeometry x="-500" y="395" width="1070" height="765" as="geometry" />
        </mxCell>
        <mxCell id="hkQat9WKistaWR4Mlhn9-6" value="Main Image&lt;br&gt;" style="rounded=1;whiteSpace=wrap;html=1;fillColor=#e1d5e7;strokeColor=#9673a6;" vertex="1" parent="hkQat9WKistaWR4Mlhn9-68">
          <mxGeometry x="10" y="35" width="120" height="60" as="geometry" />
        </mxCell>
        <mxCell id="hkQat9WKistaWR4Mlhn9-1" value="MAIN MENU" style="rounded=1;whiteSpace=wrap;html=1;fillColor=#e1d5e7;strokeColor=#9673a6;" vertex="1" parent="hkQat9WKistaWR4Mlhn9-68">
          <mxGeometry x="200" y="35" width="120" height="60" as="geometry" />
        </mxCell>
        <mxCell id="hkQat9WKistaWR4Mlhn9-7" style="edgeStyle=orthogonalEdgeStyle;rounded=0;orthogonalLoop=1;jettySize=auto;html=1;" edge="1" parent="hkQat9WKistaWR4Mlhn9-68" source="hkQat9WKistaWR4Mlhn9-6" target="hkQat9WKistaWR4Mlhn9-1">
          <mxGeometry relative="1" as="geometry" />
        </mxCell>
        <mxCell id="hkQat9WKistaWR4Mlhn9-3" value="LOBBY" style="rounded=1;whiteSpace=wrap;html=1;fillColor=#e1d5e7;strokeColor=#9673a6;" vertex="1" parent="hkQat9WKistaWR4Mlhn9-68">
          <mxGeometry x="90" y="280" width="120" height="60" as="geometry" />
        </mxCell>
        <mxCell id="hkQat9WKistaWR4Mlhn9-8" style="edgeStyle=orthogonalEdgeStyle;rounded=0;orthogonalLoop=1;jettySize=auto;html=1;" edge="1" parent="hkQat9WKistaWR4Mlhn9-68" source="hkQat9WKistaWR4Mlhn9-1" target="hkQat9WKistaWR4Mlhn9-3">
          <mxGeometry relative="1" as="geometry" />
        </mxCell>
        <mxCell id="hkQat9WKistaWR4Mlhn9-48" value="SHOW TO PLAYER" style="rounded=1;whiteSpace=wrap;html=1;fillColor=#e1d5e7;strokeColor=#9673a6;" vertex="1" parent="hkQat9WKistaWR4Mlhn9-68">
          <mxGeometry x="570" y="495" width="80" height="30" as="geometry" />
        </mxCell>
        <mxCell id="hkQat9WKistaWR4Mlhn9-76" style="edgeStyle=orthogonalEdgeStyle;rounded=0;orthogonalLoop=1;jettySize=auto;html=1;" edge="1" parent="hkQat9WKistaWR4Mlhn9-68" source="hkQat9WKistaWR4Mlhn9-70">
          <mxGeometry relative="1" as="geometry">
            <mxPoint x="500" y="-75" as="targetPoint" />
          </mxGeometry>
        </mxCell>
        <mxCell id="hkQat9WKistaWR4Mlhn9-70" value="RECOUNT ANIMATION" style="rounded=1;whiteSpace=wrap;html=1;fillColor=#e1d5e7;strokeColor=#9673a6;" vertex="1" parent="hkQat9WKistaWR4Mlhn9-68">
          <mxGeometry x="440" y="585" width="120" height="60" as="geometry" />
        </mxCell>
        <mxCell id="hkQat9WKistaWR4Mlhn9-84" style="edgeStyle=orthogonalEdgeStyle;rounded=0;orthogonalLoop=1;jettySize=auto;html=1;entryX=0;entryY=0.5;entryDx=0;entryDy=0;" edge="1" parent="hkQat9WKistaWR4Mlhn9-68" source="hkQat9WKistaWR4Mlhn9-71" target="hkQat9WKistaWR4Mlhn9-82">
          <mxGeometry relative="1" as="geometry" />
        </mxCell>
        <mxCell id="hkQat9WKistaWR4Mlhn9-71" value="APPLY RESULTS" style="rounded=1;whiteSpace=wrap;html=1;fillColor=#e1d5e7;strokeColor=#9673a6;" vertex="1" parent="hkQat9WKistaWR4Mlhn9-68">
          <mxGeometry x="700" y="585" width="120" height="60" as="geometry" />
        </mxCell>
        <mxCell id="hkQat9WKistaWR4Mlhn9-80" style="edgeStyle=orthogonalEdgeStyle;rounded=0;orthogonalLoop=1;jettySize=auto;html=1;entryX=0;entryY=0.5;entryDx=0;entryDy=0;" edge="1" parent="hkQat9WKistaWR4Mlhn9-68" source="hkQat9WKistaWR4Mlhn9-78" target="hkQat9WKistaWR4Mlhn9-71">
          <mxGeometry relative="1" as="geometry" />
        </mxCell>
        <mxCell id="hkQat9WKistaWR4Mlhn9-78" value="CALC FINAL RESULT" style="rounded=1;whiteSpace=wrap;html=1;fillColor=#f8cecc;strokeColor=#b85450;" vertex="1" parent="hkQat9WKistaWR4Mlhn9-68">
          <mxGeometry x="460" y="535" width="80" height="30" as="geometry" />
        </mxCell>
        <mxCell id="hkQat9WKistaWR4Mlhn9-86" style="edgeStyle=orthogonalEdgeStyle;rounded=0;orthogonalLoop=1;jettySize=auto;html=1;" edge="1" parent="hkQat9WKistaWR4Mlhn9-68" source="hkQat9WKistaWR4Mlhn9-81">
          <mxGeometry relative="1" as="geometry">
            <mxPoint x="930" y="63" as="targetPoint" />
          </mxGeometry>
        </mxCell>
        <mxCell id="hkQat9WKistaWR4Mlhn9-81" value="EXPERIENCE ANIMATION" style="rounded=1;whiteSpace=wrap;html=1;fillColor=#e1d5e7;strokeColor=#9673a6;" vertex="1" parent="hkQat9WKistaWR4Mlhn9-68">
          <mxGeometry x="890" y="525" width="120" height="60" as="geometry" />
        </mxCell>
        <mxCell id="hkQat9WKistaWR4Mlhn9-82" value="DEFEND ANIMATION" style="rounded=1;whiteSpace=wrap;html=1;fillColor=#e1d5e7;strokeColor=#9673a6;" vertex="1" parent="hkQat9WKistaWR4Mlhn9-68">
          <mxGeometry x="890" y="585" width="120" height="60" as="geometry" />
        </mxCell>
        <mxCell id="hkQat9WKistaWR4Mlhn9-83" value="ATTACK ANIMATION" style="rounded=1;whiteSpace=wrap;html=1;fillColor=#e1d5e7;strokeColor=#9673a6;" vertex="1" parent="hkQat9WKistaWR4Mlhn9-68">
          <mxGeometry x="890" y="645" width="120" height="60" as="geometry" />
        </mxCell>
        <mxCell id="hkQat9WKistaWR4Mlhn9-90" style="edgeStyle=orthogonalEdgeStyle;rounded=0;orthogonalLoop=1;jettySize=auto;html=1;entryX=0.5;entryY=0;entryDx=0;entryDy=0;fillColor=#6a00ff;strokeColor=#3700CC;" edge="1" parent="hkQat9WKistaWR4Mlhn9-68" source="hkQat9WKistaWR4Mlhn9-87" target="hkQat9WKistaWR4Mlhn9-89">
          <mxGeometry relative="1" as="geometry" />
        </mxCell>
        <mxCell id="hkQat9WKistaWR4Mlhn9-93" style="edgeStyle=orthogonalEdgeStyle;rounded=0;orthogonalLoop=1;jettySize=auto;html=1;" edge="1" parent="hkQat9WKistaWR4Mlhn9-68" source="hkQat9WKistaWR4Mlhn9-87">
          <mxGeometry relative="1" as="geometry">
            <mxPoint x="1010" y="285" as="targetPoint" />
          </mxGeometry>
        </mxCell>
        <mxCell id="hkQat9WKistaWR4Mlhn9-87" value="IF ANY PLAYER LIVES=0" style="shape=parallelogram;perimeter=parallelogramPerimeter;whiteSpace=wrap;html=1;fixedSize=1;" vertex="1" parent="hkQat9WKistaWR4Mlhn9-68">
          <mxGeometry x="840" y="365" width="190" height="60" as="geometry" />
        </mxCell>
        <mxCell id="hkQat9WKistaWR4Mlhn9-92" style="edgeStyle=orthogonalEdgeStyle;rounded=0;orthogonalLoop=1;jettySize=auto;html=1;" edge="1" parent="hkQat9WKistaWR4Mlhn9-68" source="hkQat9WKistaWR4Mlhn9-88">
          <mxGeometry relative="1" as="geometry">
            <mxPoint x="150" y="355" as="targetPoint" />
          </mxGeometry>
        </mxCell>
        <mxCell id="hkQat9WKistaWR4Mlhn9-88" value="TRUE" style="text;html=1;strokeColor=none;fillColor=none;align=center;verticalAlign=middle;whiteSpace=wrap;rounded=0;" vertex="1" parent="hkQat9WKistaWR4Mlhn9-68">
          <mxGeometry x="980" y="245" width="60" height="30" as="geometry" />
        </mxCell>
        <mxCell id="hkQat9WKistaWR4Mlhn9-89" value="FALSE" style="text;html=1;strokeColor=none;fillColor=none;align=center;verticalAlign=middle;whiteSpace=wrap;rounded=0;" vertex="1" parent="hkQat9WKistaWR4Mlhn9-68">
          <mxGeometry x="820" y="485" width="60" height="30" as="geometry" />
        </mxCell>
        <mxCell id="hkQat9WKistaWR4Mlhn9-59" value="" style="edgeStyle=orthogonalEdgeStyle;rounded=0;orthogonalLoop=1;jettySize=auto;html=1;exitX=1.023;exitY=0.908;exitDx=0;exitDy=0;exitPerimeter=0;fillColor=#fa6800;strokeColor=#C73500;" edge="1" parent="1" source="hkQat9WKistaWR4Mlhn9-23" target="hkQat9WKistaWR4Mlhn9-48">
          <mxGeometry relative="1" as="geometry">
            <mxPoint x="110" y="925" as="targetPoint" />
            <mxPoint x="-20.5" y="582" as="sourcePoint" />
          </mxGeometry>
        </mxCell>
        <mxCell id="hkQat9WKistaWR4Mlhn9-75" style="edgeStyle=orthogonalEdgeStyle;rounded=0;orthogonalLoop=1;jettySize=auto;html=1;entryX=0;entryY=0.25;entryDx=0;entryDy=0;" edge="1" parent="1" source="hkQat9WKistaWR4Mlhn9-29" target="hkQat9WKistaWR4Mlhn9-70">
          <mxGeometry relative="1" as="geometry" />
        </mxCell>
        <mxCell id="hkQat9WKistaWR4Mlhn9-29" value="&lt;p style=&quot;line-height: 140%;&quot;&gt;&lt;br&gt;&lt;/p&gt;&lt;p style=&quot;line-height: 140%;&quot;&gt;&lt;br&gt;&lt;/p&gt;" style="rounded=1;whiteSpace=wrap;html=1;fillColor=#e1d5e7;strokeColor=#9673a6;align=center;" vertex="1" parent="1">
          <mxGeometry x="-490" y="945" width="380" height="120" as="geometry" />
        </mxCell>
        <mxCell id="hkQat9WKistaWR4Mlhn9-10" style="edgeStyle=orthogonalEdgeStyle;rounded=0;orthogonalLoop=1;jettySize=auto;html=1;entryX=0;entryY=0.5;entryDx=0;entryDy=0;" edge="1" parent="1" source="hkQat9WKistaWR4Mlhn9-3" target="hkQat9WKistaWR4Mlhn9-9">
          <mxGeometry relative="1" as="geometry" />
        </mxCell>
        <mxCell id="hkQat9WKistaWR4Mlhn9-35" style="edgeStyle=orthogonalEdgeStyle;rounded=0;orthogonalLoop=1;jettySize=auto;html=1;entryX=1;entryY=0.5;entryDx=0;entryDy=0;" edge="1" parent="1" source="hkQat9WKistaWR4Mlhn9-4" target="hkQat9WKistaWR4Mlhn9-28">
          <mxGeometry relative="1" as="geometry" />
        </mxCell>
        <mxCell id="hkQat9WKistaWR4Mlhn9-4" value="INIT GAME ANIMATION" style="rounded=1;whiteSpace=wrap;html=1;fillColor=#e1d5e7;strokeColor=#9673a6;" vertex="1" parent="1">
          <mxGeometry x="175" y="805" width="120" height="60" as="geometry" />
        </mxCell>
        <mxCell id="hkQat9WKistaWR4Mlhn9-12" style="edgeStyle=orthogonalEdgeStyle;rounded=0;orthogonalLoop=1;jettySize=auto;html=1;fillColor=#60a917;strokeColor=#2D7600;" edge="1" parent="1" source="hkQat9WKistaWR4Mlhn9-9" target="hkQat9WKistaWR4Mlhn9-23">
          <mxGeometry relative="1" as="geometry">
            <mxPoint x="-20" y="625" as="targetPoint" />
          </mxGeometry>
        </mxCell>
        <mxCell id="hkQat9WKistaWR4Mlhn9-9" value="MATCHMAKING&lt;br&gt;START" style="rounded=1;whiteSpace=wrap;html=1;fillColor=#e1d5e7;strokeColor=#9673a6;" vertex="1" parent="1">
          <mxGeometry x="-180" y="675" width="120" height="60" as="geometry" />
        </mxCell>
        <mxCell id="hkQat9WKistaWR4Mlhn9-22" style="edgeStyle=orthogonalEdgeStyle;rounded=0;orthogonalLoop=1;jettySize=auto;html=1;" edge="1" parent="1" source="hkQat9WKistaWR4Mlhn9-16" target="hkQat9WKistaWR4Mlhn9-14">
          <mxGeometry relative="1" as="geometry" />
        </mxCell>
        <mxCell id="hkQat9WKistaWR4Mlhn9-16" value="REMOTE INSTANCE" style="swimlane;whiteSpace=wrap;html=1;" vertex="1" parent="1">
          <mxGeometry x="-190" y="50" width="200" height="90" as="geometry">
            <mxRectangle x="470" y="130" width="200" height="30" as="alternateBounds" />
          </mxGeometry>
        </mxCell>
        <mxCell id="hkQat9WKistaWR4Mlhn9-18" value="" style="shape=cylinder3;whiteSpace=wrap;html=1;boundedLbl=1;backgroundOutline=1;size=15;" vertex="1" parent="hkQat9WKistaWR4Mlhn9-16">
          <mxGeometry x="10" y="30" width="40" height="50" as="geometry" />
        </mxCell>
        <mxCell id="hkQat9WKistaWR4Mlhn9-20" value="" style="shape=cylinder3;whiteSpace=wrap;html=1;boundedLbl=1;backgroundOutline=1;size=15;" vertex="1" parent="hkQat9WKistaWR4Mlhn9-16">
          <mxGeometry x="110" y="30" width="40" height="50" as="geometry" />
        </mxCell>
        <mxCell id="hkQat9WKistaWR4Mlhn9-21" value="" style="shape=cylinder3;whiteSpace=wrap;html=1;boundedLbl=1;backgroundOutline=1;size=15;" vertex="1" parent="hkQat9WKistaWR4Mlhn9-16">
          <mxGeometry x="150" y="30" width="40" height="50" as="geometry" />
        </mxCell>
        <mxCell id="hkQat9WKistaWR4Mlhn9-19" value="" style="shape=cylinder3;whiteSpace=wrap;html=1;boundedLbl=1;backgroundOutline=1;size=15;" vertex="1" parent="hkQat9WKistaWR4Mlhn9-16">
          <mxGeometry x="50" y="30" width="40" height="50" as="geometry" />
        </mxCell>
        <mxCell id="hkQat9WKistaWR4Mlhn9-27" style="edgeStyle=orthogonalEdgeStyle;rounded=0;orthogonalLoop=1;jettySize=auto;html=1;exitX=1;exitY=0.5;exitDx=0;exitDy=0;entryX=0.5;entryY=0;entryDx=0;entryDy=0;fillColor=#60a917;strokeColor=#2D7600;" edge="1" parent="1" source="hkQat9WKistaWR4Mlhn9-23" target="hkQat9WKistaWR4Mlhn9-4">
          <mxGeometry relative="1" as="geometry">
            <mxPoint x="145" y="530" as="sourcePoint" />
          </mxGeometry>
        </mxCell>
        <mxCell id="hkQat9WKistaWR4Mlhn9-45" style="edgeStyle=orthogonalEdgeStyle;rounded=0;orthogonalLoop=1;jettySize=auto;html=1;entryX=0.113;entryY=0;entryDx=0;entryDy=0;entryPerimeter=0;" edge="1" parent="1" source="hkQat9WKistaWR4Mlhn9-48" target="hkQat9WKistaWR4Mlhn9-29">
          <mxGeometry relative="1" as="geometry">
            <mxPoint x="110" y="925" as="targetPoint" />
            <mxPoint x="-20.5" y="582" as="sourcePoint" />
          </mxGeometry>
        </mxCell>
        <mxCell id="hkQat9WKistaWR4Mlhn9-23" value="" style="shape=process;whiteSpace=wrap;html=1;backgroundOutline=1;" vertex="1" parent="1">
          <mxGeometry x="-220" y="180" width="260" height="130" as="geometry" />
        </mxCell>
        <mxCell id="hkQat9WKistaWR4Mlhn9-14" value="SERVER" style="ellipse;shape=cloud;whiteSpace=wrap;html=1;" vertex="1" parent="1">
          <mxGeometry x="-155" y="195" width="130" height="100" as="geometry" />
        </mxCell>
        <mxCell id="hkQat9WKistaWR4Mlhn9-66" style="edgeStyle=orthogonalEdgeStyle;rounded=0;orthogonalLoop=1;jettySize=auto;html=1;" edge="1" parent="1" source="hkQat9WKistaWR4Mlhn9-28">
          <mxGeometry relative="1" as="geometry">
            <mxPoint x="-290" y="900" as="targetPoint" />
          </mxGeometry>
        </mxCell>
        <mxCell id="hkQat9WKistaWR4Mlhn9-28" value="HERO SELECTION" style="rounded=1;whiteSpace=wrap;html=1;fillColor=#e1d5e7;strokeColor=#9673a6;" vertex="1" parent="1">
          <mxGeometry x="-380" y="805" width="120" height="60" as="geometry" />
        </mxCell>
        <mxCell id="hkQat9WKistaWR4Mlhn9-52" style="edgeStyle=orthogonalEdgeStyle;rounded=0;orthogonalLoop=1;jettySize=auto;html=1;exitX=1;exitY=0.5;exitDx=0;exitDy=0;" edge="1" parent="1" source="hkQat9WKistaWR4Mlhn9-34" target="hkQat9WKistaWR4Mlhn9-51">
          <mxGeometry relative="1" as="geometry" />
        </mxCell>
        <mxCell id="hkQat9WKistaWR4Mlhn9-34" value="ROUND INSTANCE" style="rounded=1;whiteSpace=wrap;html=1;fillColor=#e1d5e7;strokeColor=#9673a6;" vertex="1" parent="1">
          <mxGeometry x="-470" y="995" width="80" height="30" as="geometry" />
        </mxCell>
        <mxCell id="hkQat9WKistaWR4Mlhn9-36" value="IF BOTH &lt;br&gt;PLAYERS &lt;br&gt;ARE READY" style="text;html=1;strokeColor=none;fillColor=none;align=center;verticalAlign=middle;whiteSpace=wrap;rounded=0;" vertex="1" parent="1">
          <mxGeometry x="-25" y="195" width="230" height="30" as="geometry" />
        </mxCell>
        <mxCell id="hkQat9WKistaWR4Mlhn9-41" style="edgeStyle=orthogonalEdgeStyle;rounded=0;orthogonalLoop=1;jettySize=auto;html=1;entryX=0.977;entryY=1.046;entryDx=0;entryDy=0;entryPerimeter=0;fillColor=#fa6800;strokeColor=#C73500;" edge="1" parent="1" source="hkQat9WKistaWR4Mlhn9-37" target="hkQat9WKistaWR4Mlhn9-23">
          <mxGeometry relative="1" as="geometry">
            <mxPoint x="30" y="605" as="targetPoint" />
            <Array as="points">
              <mxPoint x="-170" y="780" />
              <mxPoint x="34" y="780" />
            </Array>
          </mxGeometry>
        </mxCell>
        <mxCell id="hkQat9WKistaWR4Mlhn9-37" value="ANIMATION ROLL" style="rounded=1;whiteSpace=wrap;html=1;fillColor=#e1d5e7;strokeColor=#9673a6;" vertex="1" parent="1">
          <mxGeometry x="-210" y="995" width="80" height="30" as="geometry" />
        </mxCell>
        <mxCell id="hkQat9WKistaWR4Mlhn9-43" value="PROBABILITY CALC" style="text;html=1;strokeColor=none;fillColor=none;align=center;verticalAlign=middle;whiteSpace=wrap;rounded=0;" vertex="1" parent="1">
          <mxGeometry x="-130" y="750" width="150" height="30" as="geometry" />
        </mxCell>
        <mxCell id="hkQat9WKistaWR4Mlhn9-47" value="GET ROLL&amp;nbsp;&lt;br&gt;RESULT" style="rounded=1;whiteSpace=wrap;html=1;fillColor=#f8cecc;strokeColor=#b85450;" vertex="1" parent="1">
          <mxGeometry x="70" y="705" width="80" height="30" as="geometry" />
        </mxCell>
        <mxCell id="hkQat9WKistaWR4Mlhn9-53" style="edgeStyle=orthogonalEdgeStyle;rounded=0;orthogonalLoop=1;jettySize=auto;html=1;exitX=1;exitY=0.5;exitDx=0;exitDy=0;" edge="1" parent="1" source="hkQat9WKistaWR4Mlhn9-51" target="hkQat9WKistaWR4Mlhn9-37">
          <mxGeometry relative="1" as="geometry" />
        </mxCell>
        <mxCell id="hkQat9WKistaWR4Mlhn9-51" value="SLOT SELECTION" style="rounded=1;whiteSpace=wrap;html=1;fillColor=#e1d5e7;strokeColor=#9673a6;" vertex="1" parent="1">
          <mxGeometry x="-340" y="995" width="80" height="30" as="geometry" />
        </mxCell>
        <mxCell id="hkQat9WKistaWR4Mlhn9-67" value="ROUNDS (x3)" style="text;html=1;strokeColor=none;fillColor=none;align=center;verticalAlign=middle;whiteSpace=wrap;rounded=0;" vertex="1" parent="1">
          <mxGeometry x="-540" y="950" width="470" height="30" as="geometry" />
        </mxCell>
      </root>
    </mxGraphModel>
  </diagram>
</mxfile>
